<svg xmlns="http://www.w3.org/2000/svg" viewBox="0 0 160 160" role="img" aria-label="Growing carrot">
  <ellipse cx="80" cy="132" rx="47" ry="11" fill="#5e4425" opacity=".25"/>
  <path d="M44 126h72l-12 20H56z" fill="#7a5530"/>
  <path d="M50 118c18 8 43 10 60 0 4 4 5 9 3 13H47c-2-5-1-9 3-13z" fill="#8c6239"/>
  <path d="M80 121V69" stroke="#4b8d35" stroke-width="5" stroke-linecap="round"/>
  <path d="M78 91c-17-8-27-20-30-38 17 5 27 18 30 38z" fill="#63a94a"/>
  <path d="M83 92c18-8 30-22 33-41-18 6-30 20-33 41z" fill="#78b853"/>
  <path d="M67 111c8 14 18 14 26 0l-7 31H74z" fill="#e48a30"/>
</svg>
